<?xml version="1.0" encoding="utf-8"?>
<!-- Generator: Adobe Illustrator 23.0.3, SVG Export Plug-In . SVG Version: 6.00 Build 0)  -->
<svg version="1.1" xmlns="http://www.w3.org/2000/svg" xmlns:xlink="http://www.w3.org/1999/xlink" x="0px" y="0px"
	 viewBox="0 0 924 2337.6" style="enable-background:new 0 0 924 2337.6;" xml:space="preserve">
<style type="text/css">
	.st0{fill:#FFFFFF;}
	.st1{fill:#013D0B;}
	.st2{fill:#026615;}
	.st3{fill:none;stroke:#FFFFFF;stroke-width:2.8346;}
	.st4{display:none;}
	.st5{display:inline;}
	.st6{fill:#1C4FA8;}
	.st7{fill:none;stroke:#FFFFFF;stroke-width:2.5;}
	.st8{fill:none;stroke:#FFFFFF;stroke-width:2;}
	.st9{fill:#FAF189;}
	.st10{stroke:#FB9790;stroke-width:2;}
	.st11{fill:none;stroke:#FB9790;stroke-width:2;}
	.st12{fill:none;stroke:#FFFFFF;stroke-width:1.5;}
	.st13{fill:none;stroke:#FAF189;stroke-width:2;stroke-dasharray:14,7;}
	.st14{opacity:0.6;fill:none;stroke:#FAF189;stroke-width:1.5;stroke-dasharray:10,6;enable-background:new    ;}
	.st15{fill:none;}
</style>
<g id="Layer_5">
	<g id="Sizes">
		<g id="Boundig_rectangle_after_click">
			<rect x="66" y="51.2" class="st0" width="792" height="515"/>
		</g>
	</g>
	<g id="Background_on_click">
	</g>
	<g id="Background">
		<rect x="66" y="51.2" class="st1" width="792" height="515"/>
		<g>
			<rect x="67.7" y="102.5" class="st2" width="790.3" height="25.3"/>
			<rect x="67.7" y="52" class="st2" width="790.3" height="25.3"/>
			<rect x="67.7" y="153" class="st2" width="790.3" height="25.3"/>
			<rect x="67.7" y="203.6" class="st2" width="790.3" height="25.3"/>
			<rect x="67.7" y="254.1" class="st2" width="790.3" height="25.3"/>
			<rect x="67.7" y="304.6" class="st2" width="790.3" height="25.3"/>
			<rect x="67.7" y="355.2" class="st2" width="790.3" height="25.3"/>
			<rect x="67.7" y="405.7" class="st2" width="790.3" height="25.3"/>
			<rect x="67.7" y="456.2" class="st2" width="790.3" height="25.3"/>
			<rect x="67.7" y="506.7" class="st2" width="790.3" height="25.3"/>
		</g>
	</g>
	<g id="Outlines">
		<path class="st3" d="M461.8,52.7"/>
		<path class="st3" d="M461.8,565"/>
		<rect x="67.5" y="240" class="st3" width="0.3" height="137.5"/>
		<rect x="67.5" y="156.7" class="st3" width="0.3" height="303.9"/>
		<path class="st3" d="M530.2,309c0,37.6-30.3,68.1-67.8,68.5h-0.6c-37.7-0.2-68.2-30.8-68.2-68.5c0-37.7,30.5-68.4,68.2-68.5h0.6
			C500,240.8,530.2,271.4,530.2,309z"/>
		<line class="st3" x1="461.8" y1="52.7" x2="461.8" y2="52"/>
		<path class="st3" d="M217.4,309.1c0,22.5-10.9,42.9-27.3,55.6v-111C206.5,266.3,217.4,286.5,217.4,309.1z"/>
		<polygon class="st3" points="190.1,156.7 190.1,460.5 67.8,460.5 67.8,377.6 107.5,377.6 107.5,240 67.8,240 67.8,156.7 		"/>
		<rect x="67.8" y="240" class="st3" width="39.7" height="137.5"/>
		<path class="st3" d="M393.6,309c0,37.7,30.5,68.4,68.2,68.5V565h-394V460.5h122.3v-95.9c16.4-12.7,27.3-33,27.3-55.6
			s-10.9-42.8-27.3-55.5v-96.9H67.8v-104h394v187.7C424.1,240.6,393.6,271.2,393.6,309z"/>
		<line class="st3" x1="461.8" y1="565.5" x2="461.8" y2="565"/>
		<path class="st3" d="M462.5,52.7"/>
		<path class="st3" d="M462.5,565"/>
		<rect x="856" y="240" class="st3" width="0.3" height="137.5"/>
		<rect x="856" y="156.7" class="st3" width="0.3" height="303.9"/>
		<line class="st3" x1="462.5" y1="240.4" x2="462.2" y2="240.4"/>
		<line class="st3" x1="462.5" y1="377.5" x2="462.2" y2="377.5"/>
		<line class="st3" x1="462.5" y1="52" x2="462.5" y2="52.7"/>
		<path class="st3" d="M733.8,253.6v111c-16.4-12.7-27.3-33-27.3-55.6S717.4,266.3,733.8,253.6z"/>
		<polygon class="st3" points="816.4,240 816.4,377.6 856,377.6 856,460.5 733.8,460.5 733.8,156.7 856,156.7 856,240 		"/>
		<rect x="816.4" y="240" class="st3" width="39.7" height="137.5"/>
		<path class="st3" d="M706.4,309.1c0,22.5,10.9,42.9,27.3,55.6v95.9H856V565H462V377.5h0.2c37.6-0.2,68.1-30.8,68.1-68.5
			c0-37.7-30.4-68.3-68.1-68.5H462V52.7h394v104H733.8v96.9C717.4,266.3,706.4,286.5,706.4,309.1z"/>
		<line class="st3" x1="462.5" y1="565" x2="462.5" y2="565.5"/>
		<line class="st3" x1="461.8" y1="240.4" x2="461.8" y2="376.4"/>
	</g>
</g>
<g id="Multo_court">
	<g id="V1" class="st4">
		<g id="main_multicourt_1_" class="st5">
			<path d="M186.4,963.6h551.2V665.4H186.4V963.6z M243.4,687c70.9,13.8,117.2,82.5,103.4,153.4c-10.2,52.3-51.1,93.2-103.4,103.4
				h-55.1v-70.3h4.3v-1.9h-4.3V864h34.2v3.5h1.8V864h15.7v3.5h9.4V864h16.1v3.5h1.8V864H284v3.5h1.8V864h16.2v-12.3
				c20-0.6,35.7-17.2,35.2-37.2c-0.5-19.2-16-34.6-35.2-35.2V767h-16.2v-3.5H284v3.5h-16.7v-3.5h-1.8v3.5h-16.1v-3.5h-9.4v3.5h-15.7
				v-3.5h-1.8v3.5h-34.2v-7.6h4.3v-1.9h-4.3V687H243.4z M300.1,851.7v10.5H188.3v-93.4h111.8V851.7z M301.9,815.6V781
				c19,0,34.5,15.4,34.5,34.5S321,850,301.9,850V815.6z M623.5,862.4v-93.5h112v93.5H623.5z M735.5,687v70.5h-4.3v1.9h4.3v7.6h-34.1
				v-3.5h-1.8v3.5h-15.7v-3.5h-9.4v3.5h-16.1v-3.5h-1.8v3.5h-16.7v-3.5h-1.8v3.5h-16.3v12.3c-20,0.6-35.7,17.2-35.2,37.2
				c0.5,19.2,16,34.6,35.2,35.2V864h16.3v3.5h1.8V864h16.7v3.5h1.8V864h16.1v3.5h9.4V864h15.7v3.5h1.8V864h34.2v7.6h-4.3v1.9h4.3
				v70.4h-55.1C609.4,930,563.2,861.3,577,790.4c10.2-52.3,51.1-93.1,103.3-103.3L735.5,687z M621.8,850c-19,0-34.5-15.4-34.5-34.5
				c0-19,15.4-34.5,34.5-34.5V850z M735.8,667.3v18h-55.9c-71.8,14.2-118.6,83.9-104.4,155.7c10.4,52.8,51.8,94.1,104.6,104.5h55.5
				v16.3H593.3v-14.1h-1.9v14.1H462.7V851.7c20-0.6,35.8-17.3,35.2-37.3c-0.5-19.2-16-34.7-35.2-35.2V668.3h-1.9v111.1
				c-20,0.6-35.8,17.3-35.2,37.3c0.5,19.2,16,34.7,35.2,35.2v109.9H332.2v-14.1h-1.9v14.1H188.3v-16.1h55.5
				c71.8-14.2,118.6-83.9,104.4-155.7c-10.4-52.8-51.8-94.1-104.6-104.5h-55.4v-18.2L735.8,667.3z M462.8,781.1
				c19,0.6,33.9,16.4,33.4,35.4c-0.5,18.2-15.2,32.9-33.4,33.4V781.1z M460.9,849.9c-19-0.6-33.9-16.4-33.4-35.4
				c0.5-18.2,15.2-32.9,33.4-33.4V849.9z"/>
		</g>
		<g id="center_courts_1_" class="st5">
			<path d="M630.9,899V730H519.1v-1.1h-1v1.1H404.6v-1.1h-1v1.1H292.8v169h110.7v1.1h1V899h113.5v1.1h1.1V899H630.9z M629.9,898
				H519.1V731h110.8V898z M293.7,731h109.7v167H293.8L293.7,731z M460.9,898h-56.4V731h113.5v167h-57H460.9z"/>
		</g>
		<g id="outer_border_1_" class="st5">
			<path d="M858,1012.1H66V616.8h792V1012.1z M68.7,1009.4h786.6V619.6H68.7L68.7,1009.4z"/>
			<g id="right_perimeter_marks_1_">
				<path d="M852.4,1012.1H842v-2.6h10.4V1012.1z M836.7,1012.1h-10.4v-2.6h10.4V1012.1z M821.1,1012.1h-4.5
					c-2.2-0.4-4.2-0.8-6.1-1.2l0.5-2.6c1.9,0.4,3.9,0.8,5.8,1.1h4.2L821.1,1012.1z M857.9,1009.7h-2.5v-10.4h2.6L857.9,1009.7z
					 M805.4,1009.7c-3.4-0.8-6.8-1.8-10.1-2.8l0.7-2.5c3.3,1,6.7,1.9,10,2.7L805.4,1009.7z M790.3,1005.4c-3.3-1.1-6.7-2.3-9.9-3.6
					l1-2.4c3.2,1.3,6.4,2.5,9.7,3.6L790.3,1005.4z M775.7,999.7c-3.2-1.4-6.4-2.9-9.5-4.4l1.2-2.3c2.9,1.5,6.2,2.9,9.4,4.4
					L775.7,999.7z M857.9,994.1h-2.6v-10.4h2.6L857.9,994.1z M761.5,992.9c-3.1-1.7-6.1-3.4-9.1-5.3l1.4-2.2
					c2.9,1.8,5.8,3.6,8.9,5.2L761.5,992.9z M748,984.8c-2.9-1.9-5.8-3.9-8.6-6.1l1.5-2.1c2.7,2,5.6,4.1,8.4,5.8L748,984.8z
					 M857.9,978.5h-2.5v-10.4h2.6L857.9,978.5z M735.2,975.5c-2.7-2.2-5.4-4.5-8-6.8l1.8-1.9c2.5,2.3,5.2,4.6,7.9,6.7L735.2,975.5z
					 M723.4,965.1c-2.5-2.4-4.9-5-7.3-7.5l1.9-1.8c2.3,2.5,4.7,5,7.2,7.4L723.4,965.1z M857.9,962.9h-2.6v-10.4h2.6L857.9,962.9z
					 M712.7,953.6c-2.3-2.7-4.5-5.4-6.5-8.2l2.1-1.5c2,2.7,4.2,5.5,6.4,8.1L712.7,953.6z M858,947.2h-2.7v-10.4h2.6L858,947.2z
					 M703,941c-2-2.9-3.9-5.8-5.6-8.8l2.2-1.3c1.8,2.9,3.6,5.8,5.6,8.8L703,941z M858,931.6h-2.7v-10.4h2.6L858,931.6z M694.9,927.6
					c-1.7-3.1-3.2-6.3-4.7-9.4l2.4-1.1c1.4,3.1,2.9,6.2,4.6,9.2L694.9,927.6z M858,915.9h-2.7v-10.4h2.6L858,915.9z M688.2,913.3
					c-1.3-3.2-2.5-6.6-3.6-9.9l2.5-0.8c1.1,3.2,2.3,6.5,3.5,9.7L688.2,913.3z M858,900.4h-2.7V890h2.6L858,900.4z M683,898.6
					c-1-3.4-1.8-6.8-2.5-10.2l2.6-0.5c0.7,3.3,1.5,6.7,2.4,10L683,898.6z M858,884.8h-2.7v-10.4h2.6L858,884.8z M679.6,883.2
					c-0.6-3.4-1-6.9-1.3-10.4l2.6-0.2c0.3,3.4,0.7,6.8,1.3,10.2L679.6,883.2z M858,869.2h-2.7v-10.5h2.6L858,869.2z M677.9,867.5
					c0-2.3-0.2-4.5-0.2-6.8v-10.5h2.6v10.4c0,2.3,0,4.5,0.2,6.7L677.9,867.5z M858,853.5h-2.7v-10.5h2.6L858,853.5z M680.3,845.1
					h-2.6v-10.5h2.6V845.1z M858,837.9h-2.7v-10.6h2.6L858,837.9z M680.3,829.5h-2.6V819h2.6V829.5z M858,822.3h-2.7v-10.5h2.6
					L858,822.3z M680.3,813.9h-2.6v-10.5h2.6V813.9z M858,806.7h-2.7v-10.5h2.6L858,806.7z M680.3,798.1h-2.6v-10.3h2.6V798.1z
					 M858,790.9h-2.7v-10.3h2.6L858,790.9z M680.3,782.5h-2.6v-10.4h2.6V782.5z M858,775.3h-2.7v-10.4h2.6L858,775.3z M680.3,766.9
					h-2.6c0-3.5,0.2-7,0.5-10.5l2.6,0.2C680.6,760.1,680.4,763.5,680.3,766.9L680.3,766.9z M858,759.7h-2.7v-10.3h2.6L858,759.7z
					 M681.4,751.4l-2.6-0.3c0.4-3.4,1-6.9,1.7-10.4l2.5,0.5C682.4,744.7,681.8,748.1,681.4,751.4L681.4,751.4z M858,744h-2.7v-10.3
					h2.6L858,744z M684.2,736.2l-2.5-0.6c0.8-3.3,1.8-6.8,2.9-10.1l2.5,0.8C686,729.7,685,733,684.2,736.2L684.2,736.2z M858,728.4
					h-2.7v-10.3h2.6L858,728.4z M688.7,721.5l-2.5-0.9c1.2-3.2,2.5-6.5,4-9.7l2.4,1.1C691.2,715.1,689.9,718.3,688.7,721.5z
					 M857.9,712.8h-2.6v-10.4h2.6L857.9,712.8z M694.8,707.3l-2.3-1.1c1.5-3.1,3.2-6.2,5-9.2l2.3,1.3
					C698,701.2,696.3,704.2,694.8,707.3z M858,697.2h-2.7v-10.4h2.6L858,697.2z M702.4,693.8l-2.2-1.4c1.8-2.9,3.8-5.8,5.8-8.8
					l2.1,1.5C706.2,688.1,704.3,691,702.4,693.8z M858,681.6h-2.7v-10.4h2.6L858,681.6z M711.4,681.2l-2-1.6c2.1-2.7,4.4-5.4,6.8-8
					l1.9,1.7C715.8,675.9,713.5,678.6,711.4,681.2z M721.6,669.5l-1.9-1.8c2.4-2.5,5-5,7.5-7.3l1.8,1.9
					C726.5,664.7,724,667.1,721.6,669.5z M858,665.8h-2.7v-10.3h2.6L858,665.8z M732.9,658.9l-1.7-2c2.6-2.3,5.4-4.4,8.2-6.5
					l1.6,2.1c-2.7,2.2-5.5,4.4-8.1,6.6V658.9z M858,650.2h-2.7v-10.3h2.6L858,650.2z M745.1,649.3l-1.5-2.1c2.9-2,5.8-3.9,8.8-5.8
					l1.4,2.2c-3,2-5.9,3.9-8.6,5.8V649.3z M758.1,641l-1.3-2.3c2.9-1.7,6.1-3.4,9.2-5l1.2,2.3c-3.1,1.7-6.2,3.3-9.1,5.1V641z
					 M858,634.6h-2.7v-10.3h2.6L858,634.6z M771.9,633.8l-1.1-2.4c3.2-1.5,6.4-2.9,9.6-4.2l1,2.4c-3.2,1.4-6.4,2.8-9.5,4.2V633.8z
					 M786.2,627.9l-0.9-2.5c3.2-1.2,6.6-2.3,9.9-3.3l0.8,2.5C792.7,625.6,789.4,626.8,786.2,627.9z M801,623.2l-0.7-2.5
					c3.4-0.9,6.8-1.8,10.2-2.5l0.5,2.5C807.7,621.5,804.3,622.3,801,623.2z M816.1,619.8l-0.5-2.6l1-0.2h9.7v2.6L816.1,619.8z
					 M856.7,619.6h-9.6V617H858v2.1h-1.3V619.6z M841.9,619.6h-10.4V617h10.4V619.6z"/>
			</g>
			<g id="left_perimeter_marks_1_">
				<path d="M97.9,1012.1v-2.6l10.1-0.1l0.5,2.5l-1,0.2L97.9,1012.1z M92.7,1012.1H82.2v-2.6h10.4V1012.1z M77,1012.1H66v-2.1h1.3
					v-0.5h9.6L77,1012.1z M113.7,1010.8l-0.6-2.5c3.3-0.7,6.7-1.5,10.1-2.5l0.7,2.5C120.5,1009.3,117,1010.1,113.7,1010.8z
					 M128.9,1006.9l-0.8-2.5c3.3-1,6.6-2.1,9.8-3.3l0.9,2.4C135.6,1004.7,132.2,1005.9,128.9,1006.9z M68.7,1004.7H66v-10.4h2.6
					L68.7,1004.7z M143.7,1001.7l-1-2.4c3.2-1.3,6.4-2.7,9.5-4.1l1.1,2.4C150.2,999,146.9,1000.4,143.7,1001.7z M158,995.2l-1.2-2.3
					c3.1-1.5,6.2-3.2,9.1-4.9l1.3,2.3C164.3,991.9,161.2,993.6,158,995.2z M68.7,989.1H66v-10.4h2.6L68.7,989.1z M171.8,987.5
					l-1.4-2.2c2.9-1.8,5.8-3.7,8.6-5.7l1.5,2.1C177.7,983.7,174.7,985.7,171.8,987.5z M184.7,978.7l-1.6-2.1
					c2.9-2.1,5.5-4.3,8.1-6.5l1.7,2c-2.6,2.1-5.4,4.3-8.2,6.5V978.7z M68.7,973.5H66v-10.4h2.6L68.7,973.5z M196.9,968.6l-1.8-1.9
					c2.5-2.3,5-4.7,7.4-7.2l1.9,1.8C201.9,963.8,199.4,966.2,196.9,968.6L196.9,968.6z M68.7,957.9H66v-10.4h2.6L68.7,957.9z
					 M207.9,957.5l-1.9-1.8c2.3-2.6,4.6-5.2,6.7-7.9l2,1.6C212.6,952.2,210.3,954.8,207.9,957.5L207.9,957.5z M218,945.3l-2.1-1.5
					c2-2.9,4-5.6,5.8-8.5l2.2,1.4C222,939.5,220,942.5,218,945.3z M68.9,942.3H66v-10.4h2.6L68.9,942.3z M226.8,932.2l-2.3-1.3
					c1.8-2.9,3.4-6,4.9-9.1l2.3,1.2c-1.8,3-3.4,6.1-5.2,9.1L226.8,932.2z M68.9,926.7H66v-10.5h2.6L68.9,926.7z M234.1,918.3
					l-2.4-1.1c1.4-3.2,2.7-6.4,3.9-9.6l2.5,0.9c-1.4,3.1-2.7,6.5-4.2,9.6L234.1,918.3z M68.9,911.1H66v-10.4h2.6L68.9,911.1z
					 M239.8,903.6l-2.5-0.8c1.1-3.3,2-6.6,2.9-9.9l2.5,0.6c-1.1,3.2-2.1,6.6-3.2,10L239.8,903.6z M68.9,895.5H66v-10.4h2.6
					L68.9,895.5z M243.8,888.3l-2.5-0.5c0.7-3.4,1.3-6.8,1.7-10.2l2.6,0.3c-0.6,3.3-1.2,6.8-1.9,10.3L243.8,888.3z M68.9,879.8H66
					v-10.5h2.6L68.9,879.8z M245.8,872.6l-2.6-0.2c0.3-3.4,0.5-6.9,0.5-10.3h2.6C246.3,865.6,246.1,869.2,245.8,872.6z M68.7,864.1
					H66v-10.5h2.6L68.7,864.1z M246.3,856.9h-2.6v-10.4h2.6V856.9z M68.7,848.5H66v-10.4h2.6L68.7,848.5z M246.3,841.3h-2.6v-10.4
					h2.6V841.3z M68.7,832.9H66v-10.4h2.6L68.7,832.9z M246.3,825.7h-2.6v-10.4h2.6V825.7z M68.7,817.2H66v-10.3h2.6L68.7,817.2z
					 M246.3,810h-2.6v-10.4h2.6V810z M68.7,801.6H66v-10.4h2.6L68.7,801.6z M246.3,794.4h-2.6V784h2.6V794.4z M68.7,786H66v-10.4
					h2.6L68.7,786z M246.3,778.8h-2.6v-10.4c0-2.2,0-4.5,0-6.7h2.6c0,2.3,0,4.5,0,6.8V778.8z M68.7,770.4H66v-10.3h2.6L68.7,770.4z
					 M243.2,756.6c-0.3-3.4-0.8-6.9-1.3-10.2l2.6-0.4c0.6,3.4,1,7,1.3,10.4L243.2,756.6z M68.7,754.7H66v-10.4h2.6L68.7,754.7z
					 M241,741.2c-0.7-3.3-1.5-6.7-2.4-10l2.5-0.7c0.9,3.4,1.8,6.8,2.5,10.2L241,741.2z M68.7,739.1H66v-10.4h2.6L68.7,739.1z
					 M237,726.3c-1-3.2-2.2-6.5-3.5-9.7l2.4-1c1.3,3.2,2.6,6.5,3.6,9.9L237,726.3z M68.7,723.4H66v-10.3h2.6L68.7,723.4z
					 M231.5,711.7c-1.4-3.1-2.9-6.2-4.6-9.2l2.3-1.2c1.7,2.9,3.2,6.2,4.7,9.4L231.5,711.7z M68.7,707.8H66v-10.4h2.6L68.7,707.8z
					 M224.3,698.2c-1.8-2.9-3.6-5.8-5.6-8.8l2.1-1.5c2,2.9,3.9,5.8,5.6,8.8L224.3,698.2z M68.7,692.3H66v-10.5h2.6L68.7,692.3z
					 M215.8,685.4c-2-2.7-4.2-5.5-6.4-8.1l2-1.7c2.3,2.7,4.5,5.5,6.5,8.2L215.8,685.4z M68.7,676.6H66v-10.4h2.6L68.7,676.6z
					 M205.9,673.3c-2.3-2.5-4.7-5.1-7.2-7.5l1.8-1.9c2.5,2.4,4.9,5,7.3,7.6L205.9,673.3z M195,662.3c-2.5-2.3-5.2-4.6-7.9-6.7l1.6-2
					c2.7,2.2,5.4,4.5,8,6.8L195,662.3z M68.7,661H66v-10.4h2.6L68.7,661z M182.9,652.4c-2.7-2-5.6-4.1-8.4-5.8l1.4-2.2
					c2.9,1.9,5.8,4,8.6,6.1L182.9,652.4z M68.6,645.3H66v-10.4h2.6L68.6,645.3z M170.1,643.6c-2.9-1.8-5.8-3.5-8.9-5.2l1.3-2.3
					c3.1,1.7,6.1,3.4,9.1,5.3L170.1,643.6z M156.6,636.1c-2.9-1.5-6.2-2.9-9.4-4.4l1-2.4c3.2,1.4,6.4,2.9,9.5,4.4L156.6,636.1z
					 M68.7,629.7H66v-10.4h2.6L68.7,629.7z M142.5,629.7c-3.2-1.2-6.4-2.5-9.7-3.6l0.8-2.5c3.4,1.1,6.7,2.3,9.9,3.6L142.5,629.7z
					 M127.9,624.6c-3.3-1-6.7-1.9-10-2.7l0.6-2.5c3.4,0.8,6.8,1.7,10.1,2.7L127.9,624.6z M112.8,620.7c-1.9-0.4-3.9-0.8-5.8-1.1
					h-4.1V617h4.4c2.2,0.4,4.2,0.8,6.1,1.2L112.8,620.7z M97.5,619.6H87.2V617h10.4L97.5,619.6z M81.9,619.6H71.6V617H82L81.9,619.6
					z"/>
			</g>
		</g>
		<g id="top_right_court_1_" class="st5">
			<path d="M539.6,772.4h264.8V634.5H539.6V772.4z M558.4,635.4V647h-18v-11.5H558.4z M708.5,759.7h-73.1V647.9h73.1V759.7z
				 M634.6,703h-75.2v-55.1h75.2V703z M558.4,703h-18v-55.1h18V703z M558.4,703.9v55.7h-18v-55.7H558.4z M559.3,703.9h75.2v55.7
				h-75.2V703.9z M634.6,760.6v11h-75.2v-11H634.6z M635.4,760.6h73.1v11h-73.1V760.6z M709.4,760.6h75.2v11h-75.2L709.4,760.6z
				 M709.4,759.7v-55.7h75.2v55.7H709.4z M785.4,703.9h18v55.7h-18V703.9z M785.4,703v-55.1h18V703H785.4z M784.5,703h-75.1v-55.1
				h75.2L784.5,703z M709.4,647v-11.5h75.2V647H709.4z M708.5,647h-73.1v-11.5h73.1V647z M634.6,647h-75.2v-11.5h75.2V647z
				 M540.4,760.6h18v11h-18V760.6z M785.5,771.5v-11h18v11H785.5z M803.5,647h-18v-11.5h18V647z"/>
		</g>
		<g id="top_left_court_1_" class="st5">
			<path d="M119.7,772.4h264.9V634.5H119.7V772.4z M138.6,635.4V647h-18v-11.5H138.6z M288.6,759.7h-73.1V647.9h73.1V759.7z
				 M214.7,703h-75.2v-55.1h75.2V703z M138.7,703h-18.1v-55.1h18L138.7,703z M138.7,703.9v55.7h-18.1v-55.7H138.7z M139.6,703.9
				h75.1v55.7h-75.2L139.6,703.9z M214.7,760.6v11h-75.2v-11H214.7z M215.6,760.6h73.1v11h-73.1V760.6z M289.5,760.6h75.2v11h-75.2
				V760.6z M289.5,759.7v-55.7h75.2v55.7H289.5z M365.7,703.9h18v55.7h-18V703.9z M365.7,703v-55.1h18V703H365.7z M364.8,703h-75.2
				v-55.1h75.2V703z M289.5,647v-11.5h75.2V647H289.5z M288.6,647h-73.1v-11.5h73.1V647z M214.7,647h-75.2v-11.5h75.2V647z
				 M120.6,760.6h18v11h-18V760.6z M365.7,771.5v-11h18v11H365.7z M383.7,647h-18v-11.5h18V647z"/>
		</g>
		<g id="bottom_right_court_1_" class="st5">
			<path d="M539.6,994.5h264.8V856.6H539.6V994.5z M558.4,857.5v11.7h-18v-11.7H558.4z M708.5,981.7h-73.1V870h73.1V981.7z
				 M634.6,925.1h-75.3V870h75.2L634.6,925.1z M558.4,925.1h-18V870h18V925.1z M558.4,926v55.7h-18V926H558.4z M559.3,926h75.2v55.7
				h-75.3L559.3,926z M634.6,982.6v11h-75.3v-11H634.6z M635.5,982.6h73.1v11h-73.1V982.6z M709.4,982.6h75.2v11h-75.2L709.4,982.6z
				 M709.4,981.7V926h75.2v55.7H709.4z M785.4,926h18v55.7h-18V926z M785.4,925.1V870h18v55.1H785.4z M784.5,925.1h-75.1V870h75.2
				L784.5,925.1z M709.4,869v-11.7h75.2V869H709.4z M708.5,869h-73.1v-11.7h73.1V869z M634.6,869h-75.2v-11.7h75.2V869z
				 M540.4,982.6h18v11h-18V982.6z M785.5,993.6v-11h18v11H785.5z M803.5,869h-18v-11.7h18V869z"/>
		</g>
		<g id="bottom_left_court_1_" class="st5">
			<path d="M119.7,994.5h264.9V856.6H119.7V994.5z M138.6,857.5v11.7h-18v-11.7H138.6z M288.6,981.7h-73.1V870h73.1V981.7z
				 M214.7,925.1h-75.2V870h75.2V925.1z M138.7,925.1h-18.1V870h18L138.7,925.1z M138.7,926v55.7h-18.1V926H138.7z M139.6,926h75.1
				v55.7h-75.2L139.6,926z M214.8,982.6v11h-75.3v-11H214.8z M215.7,982.6h73.1v11h-73.1V982.6z M289.6,982.6h75.1v11h-75.2
				L289.6,982.6z M289.6,981.7V926h75.1v55.7H289.6z M365.8,926h18v55.7h-18V926z M365.8,925.1V870h18v55.1H365.8z M364.9,925.1
				h-75.4V870h75.2L364.9,925.1z M289.5,869v-11.7h75.2V869H289.5z M288.6,869h-73.1v-11.7h73.1V869z M214.7,869h-75.2v-11.7h75.2
				V869z M120.6,982.6h18v11h-18V982.6z M365.7,993.6v-11h18v11H365.7z M383.7,869h-18v-11.7h18V869z"/>
		</g>
	</g>
	<g id="V2">
		<rect x="67" y="612.7" class="st6" width="791" height="420.8"/>
		<circle cx="79.6" cy="623.7" r="1.3"/>
		<circle cx="104.9" cy="623.7" r="1.3"/>
		<circle cx="130.1" cy="623.7" r="1.3"/>
		<circle cx="155.3" cy="623.7" r="1.3"/>
		<circle cx="180.6" cy="623.7" r="1.3"/>
		<circle cx="205.8" cy="623.7" r="1.3"/>
		<circle cx="231.1" cy="623.7" r="1.3"/>
		<circle cx="256.3" cy="623.7" r="1.3"/>
		<circle cx="281.6" cy="623.7" r="1.3"/>
		<circle cx="306.8" cy="623.7" r="1.3"/>
		<circle cx="332.1" cy="623.7" r="1.3"/>
		<circle cx="357.3" cy="623.7" r="1.3"/>
		<circle cx="382.6" cy="623.7" r="1.3"/>
		<circle cx="407.8" cy="623.7" r="1.3"/>
		<circle cx="433" cy="623.7" r="1.3"/>
		<circle cx="458.3" cy="623.7" r="1.3"/>
		<circle cx="483.5" cy="623.7" r="1.3"/>
		<circle cx="508.8" cy="623.7" r="1.3"/>
		<circle cx="534" cy="623.7" r="1.3"/>
		<circle cx="559.3" cy="623.7" r="1.3"/>
		<circle cx="584.5" cy="623.7" r="1.3"/>
		<circle cx="609.8" cy="623.7" r="1.3"/>
		<circle cx="635" cy="623.7" r="1.3"/>
		<circle cx="660.2" cy="623.7" r="1.3"/>
		<circle cx="685.5" cy="623.7" r="1.3"/>
		<circle cx="710.7" cy="623.7" r="1.3"/>
		<circle cx="736" cy="623.7" r="1.3"/>
		<circle cx="761.2" cy="623.7" r="1.3"/>
		<circle cx="786.5" cy="623.7" r="1.3"/>
		<circle cx="811.7" cy="623.7" r="1.3"/>
		<circle cx="837" cy="623.7" r="1.3"/>
		<rect x="92.2" y="638" class="st7" width="740.5" height="370.3"/>
		<line class="st8" x1="462.5" y1="638" x2="462.5" y2="1008.2"/>
		<circle class="st8" cx="462.5" cy="823.1" r="50.5"/>
		<circle class="st9" cx="462.5" cy="823.1" r="3.4"/>
		<rect x="92.2" y="747.4" class="st10" width="141.4" height="151.5"/>
		<path class="st11" d="M233.6,747.4c41.8,0,75.7,33.9,75.7,75.7c0,41.8-33.9,75.7-75.7,75.7"/>
		<circle class="st11" cx="114.1" cy="823.1" r="16.8"/>
		<line class="st12" x1="92.2" y1="693.5" x2="231.1" y2="693.5"/>
		<line class="st12" x1="92.2" y1="952.7" x2="231.1" y2="952.7"/>
		<path class="st12" d="M231.1,693.5c57.2,76.9,57.2,182.3,0,259.2"/>
		<rect x="691.4" y="747.4" class="st10" width="141.4" height="151.5"/>
		<path class="st11" d="M691.4,747.4c-41.8,0-75.7,33.9-75.7,75.7c0,41.8,33.9,75.7,75.7,75.7"/>
		<circle class="st11" cx="810.9" cy="823.1" r="16.8"/>
		<line class="st12" x1="832.8" y1="693.5" x2="693.9" y2="693.5"/>
		<line class="st12" x1="832.8" y1="952.7" x2="693.9" y2="952.7"/>
		<path class="st12" d="M693.9,693.5c-57.2,76.9-57.2,182.3,0,259.2"/>
		<rect x="176.4" y="680" class="st13" width="572.2" height="286.1"/>
		<line class="st14" x1="176.4" y1="680" x2="748.6" y2="680"/>
		<line class="st14" x1="367.4" y1="680" x2="367.4" y2="966.2"/>
		<line class="st14" x1="557.6" y1="680" x2="557.6" y2="966.2"/>
		<rect x="235.3" y="705.3" class="st15" width="454.4" height="235.6"/>
		<line class="st15" x1="235.3" y1="823.1" x2="689.7" y2="823.1"/>
		<line class="st15" x1="462.5" y1="705.3" x2="462.5" y2="940.9"/>
	</g>
</g>
<g id="Basketball">
	<path d="M67.6,1107.7v424.9H858v-424.9H67.6z M230.7,1255V1388H70.4V1255H230.7z M233.2,1272.4c27.1,0.7,48.5,23.2,47.9,50.3
		c-0.6,26.2-21.7,47.3-47.9,47.9C233.2,1370.6,233.2,1272.4,233.2,1272.4z M70.4,1404.1h6v-2.7h-6v-10.8h48.9v5h2.6v-5h22.5v5h13.5
		v-5H181v5h2.7v-5h24v5h2.6v-5h23.2v-17.5c28.5-0.7,51-24.3,50.4-52.8c-0.6-27.5-22.8-49.7-50.4-50.4v-17.5H210v-5h-2.6v5h-23.8v-5
		h-2.6v5h-23.2v-5h-13.5v5h-22.5v-5h-2.6v5H70.4v-10.8h6v-2.7h-6v-100.3h78.9c88.3,17.3,152,94.5,151.7,183.5
		c-0.3,88.3-64,164.9-151.6,182.2h-79V1404.1z M463.9,1272.5c27.1,0.7,48.5,23.1,47.8,50.2c-0.6,26.1-21.7,47.2-47.8,47.8V1272.5z
		 M461,1370.5c-27.1-0.7-48.5-23.1-47.8-50.2c0.6-26.1,21.7-47.2,47.8-47.8V1370.5z M651,1529.7v-19.9h-2.8v19.9H463.9v-156.5
		c28.5-0.7,51.1-24.3,50.4-52.8c-0.6-27.6-22.8-49.8-50.4-50.4v-158H461v158c-28.5,0.7-51.1,24.3-50.4,52.8
		c0.6,27.6,22.8,49.8,50.4,50.4v156.6H276.6v-19.9h-2.8v19.9H70.4v-22.9h79.4c88.8-17.5,153.5-95.1,153.8-184.8
		c0.3-90.1-64.3-168.3-154-185.9H70.4v-25.6h784.7v25.6h-79.9c-88.8,17.5-153.5,95.1-153.8,184.8c-0.3,90.2,64.4,168.4,154,186h79.6
		v22.9L651,1529.7z M854.8,1239h-6.2v2.7h6.2v10.8h-49v-5h-2.5v5h-22.5v-5h-13.5v5h-23.1v-5h-2.6v5h-24v-5h-2.5v5h-23.3v17.5
		c-28.5,0.7-51,24.3-50.4,52.8c0.6,27.5,22.8,49.7,50.4,50.4v17.5h23.3v5h2.6v-5h24v5h2.6v-5h23.1v5h13.5v-5h22.5v5h2.6v-5h48.9
		v10.8h-6.2v2.7h6.2v100.3h-79.1c-88.1-17.4-152-94.5-151.7-183.5c0.3-88.3,64-164.9,151.6-182.2h79.2V1239z M854.8,1388.1H694.4
		V1255h160.4V1388.1z M691.8,1272.4v98.2c-27.1-0.7-48.5-23.2-47.9-50.3C644.5,1294.2,665.6,1273.1,691.8,1272.4z"/>
</g>
<g id="Tennis">
	<path d="M66.3,1570.1v177.3l0,0v4l0,0v181.3h790.8v-362.6H66.3z M854.5,1572.6v41.7H463.3v-4.6h-3.1v4.6H68.9v-41.7H854.5z
		 M854.5,1747.4h-10.3v4h10.3v133H674.2v-266.1h180.3L854.5,1747.4z M253.2,1618.4h206.9v0.5h3.1v-0.5h207v129h-417V1618.4z
		 M68.9,1747.4v-129h180.3v265.6h4v-132.4h417.2v133H463.3v-0.5h-3.1v0.5H68.9v-133.2h8v-4H68.9z M68.9,1930.2v-41.7h391.2v4.6h3.1
		v-4.6h391.3v41.7H68.9z"/>
</g>
</svg>
