<?xml version="1.0" encoding="utf-8"?>
<!-- Generator: Adobe Illustrator 23.0.3, SVG Export Plug-In . SVG Version: 6.00 Build 0)  -->
<svg version="1.1" id="Layer_1" xmlns="http://www.w3.org/2000/svg" xmlns:xlink="http://www.w3.org/1999/xlink" x="0px" y="0px"
	 viewBox="0 0 940 500" style="enable-background:new 0 0 940 500;" xml:space="preserve">
<style type="text/css">
	.st0{fill:#C8860A;}
	.st1{fill:#F9F7F7;stroke:#FFFFFF;stroke-width:2.5;}
	.st2{fill:none;}
	.st3{fill:none;stroke:#FFFFFF;stroke-width:3;}
	.st4{fill:none;stroke:#FFFFFF;stroke-width:2.5;}
	.st5{stroke:#FFFFFF;stroke-width:2.5;}
	.st6{fill:#FFFFFF;}
	.st7{fill:none;stroke:#FFFFFF;stroke-width:2.5;stroke-dasharray:12.3382,12.3382;}
</style>
<rect y="0" class="st0" width="940" height="500"/>
<rect x="30" y="148" class="st1" width="130" height="204"/>
<line class="st2" x1="0" y1="26" x2="940" y2="26"/>
<line class="st2" x1="0" y1="52" x2="940" y2="52"/>
<line class="st2" x1="0" y1="78" x2="940" y2="78"/>
<line class="st2" x1="0" y1="104" x2="940" y2="104"/>
<line class="st2" x1="0" y1="130" x2="940" y2="130"/>
<line class="st2" x1="0" y1="156" x2="940" y2="156"/>
<line class="st2" x1="0" y1="182" x2="940" y2="182"/>
<line class="st2" x1="0" y1="208" x2="940" y2="208"/>
<line class="st2" x1="0" y1="234" x2="940" y2="234"/>
<line class="st2" x1="0" y1="260" x2="940" y2="260"/>
<line class="st2" x1="0" y1="286" x2="940" y2="286"/>
<line class="st2" x1="0" y1="312" x2="940" y2="312"/>
<line class="st2" x1="0" y1="338" x2="940" y2="338"/>
<line class="st2" x1="0" y1="364" x2="940" y2="364"/>
<line class="st2" x1="0" y1="390" x2="940" y2="390"/>
<line class="st2" x1="0" y1="416" x2="940" y2="416"/>
<line class="st2" x1="0" y1="442" x2="940" y2="442"/>
<line class="st2" x1="0" y1="468" x2="940" y2="468"/>
<line class="st2" x1="0" y1="494" x2="940" y2="494"/>
<rect x="30" y="20" class="st3" width="880" height="460"/>
<line class="st4" x1="470" y1="20" x2="470" y2="480"/>
<circle class="st5" cx="470" cy="250" r="60"/>
<circle class="st6" cx="470" cy="250" r="3"/>
<path class="st4" d="M160,148c56.3,0,102,45.7,102,102s-45.7,102-102,102"/>
<g>
	<g>
		<path class="st4" d="M149.8,352c-2,0-4-0.1-6-0.2"/>
		<path class="st7" d="M131.6,350.4C84,341.8,47.8,300.1,47.8,250c0-52.2,39.2-95.3,89.9-101.3"/>
		<path class="st4" d="M143.8,148.2c2-0.1,4-0.2,6-0.2"/>
	</g>
</g>
<path class="st4" d="M155.5,86c91.1,0,165,73.4,165,164s-73.9,164-165,164"/>
<line class="st4" x1="30" y1="86" x2="155.5" y2="86"/>
<line class="st4" x1="30" y1="414" x2="160" y2="414"/>
<rect x="722" y="148" class="st4" width="188" height="204"/>
<path class="st4" d="M722,148c-56.3,0-102,45.7-102,102s45.7,102,102,102l0,0"/>
</svg>
