<?xml version="1.0" encoding="utf-8"?>
<!-- Generator: Adobe Illustrator 23.0.3, SVG Export Plug-In . SVG Version: 6.00 Build 0)  -->
<svg version="1.1" id="Layer_1" xmlns="http://www.w3.org/2000/svg" xmlns:xlink="http://www.w3.org/1999/xlink" x="0px" y="0px"
	 viewBox="0 0 940 500" style="enable-background:new 0 0 940 500;" xml:space="preserve">
<style type="text/css">
	.st0{fill:#1F6B32;}
	.st1{fill:none;stroke:#FFFFFF;stroke-width:3;}
	.st2{fill:none;stroke:#FFFFFF;stroke-width:2.5;}
	.st3{stroke:#FFFFFF;stroke-width:2.5;}
	.st4{fill:#FFFFFF;}
</style>
<rect y="0" class="st0" width="940" height="500"/>
<rect y="0" width="940" height="25"/>
<rect y="50" width="940" height="25"/>
<rect y="100" width="940" height="25"/>
<rect y="150" width="940" height="25"/>
<rect y="200" width="940" height="25"/>
<rect y="250" width="940" height="25"/>
<rect y="300" width="940" height="25"/>
<rect y="350" width="940" height="25"/>
<rect y="400" width="940" height="25"/>
<rect y="450" width="940" height="25"/>
<rect x="30" y="30" class="st1" width="880" height="440"/>
<line class="st2" x1="470" y1="30" x2="470" y2="470"/>
<circle class="st2" cx="470" cy="250" r="73"/>
<rect x="30" y="140" class="st3" width="165" height="220"/>
<rect x="30" y="195" class="st3" width="55" height="110"/>
<rect x="8" y="210" class="st3" width="22" height="80"/>
<circle class="st4" cx="142" cy="250" r="3"/>
<path class="st2" d="M195,216c11.2,21.3,11.2,46.7,0,68"/>
<rect x="745" y="140" class="st3" width="165" height="220"/>
<rect x="855" y="195" class="st3" width="55" height="110"/>
<rect x="910" y="210" class="st3" width="22" height="80"/>
<circle class="st4" cx="798" cy="250" r="3"/>
<path class="st2" d="M745,216c-11.2,21.3-11.2,46.7,0,68"/>
</svg>
