<?xml version="1.0" encoding="utf-8"?>
<!-- Generator: Adobe Illustrator 23.0.3, SVG Export Plug-In . SVG Version: 6.00 Build 0)  -->
<svg version="1.1" xmlns="http://www.w3.org/2000/svg" xmlns:xlink="http://www.w3.org/1999/xlink" x="0px" y="0px"
	 viewBox="0 0 783.7 509.6" style="enable-background:new 0 0 783.7 509.6;" xml:space="preserve">
<style type="text/css">
	.st0{fill:#013D0B;}
	.st1{fill:#026615;}
	.st2{fill:none;stroke:#E02239;stroke-width:2.8346;}
</style>
<g id="Background_on_click">
	
		<image style="overflow:visible;" width="4279" height="2776" xlink:href="Images/pexels-tomfisk-3448250.jpg"  transform="matrix(0.1829 0 0 0.1829 1.0457 0.9355)">
	</image>
</g>
<g id="Background">
	<rect class="st0" width="783.7" height="509.6"/>
	<g>
		<rect x="1.6" y="50.7" class="st1" width="782" height="25"/>
		<rect x="1.6" y="0.7" class="st1" width="782" height="25"/>
		<rect x="1.6" y="100.7" class="st1" width="782" height="25"/>
		<rect x="1.6" y="150.7" class="st1" width="782" height="25"/>
		<rect x="1.6" y="200.7" class="st1" width="782" height="25"/>
		<rect x="1.6" y="250.7" class="st1" width="782" height="25"/>
		<rect x="1.6" y="300.7" class="st1" width="782" height="25"/>
		<rect x="1.6" y="350.7" class="st1" width="782" height="25"/>
		<rect x="1.6" y="400.7" class="st1" width="782" height="25"/>
		<rect x="1.6" y="450.7" class="st1" width="782" height="25"/>
	</g>
</g>
<g id="Outlines">
	<path class="st2" d="M391.6,1.4"/>
	<path class="st2" d="M391.6,508.3"/>
	<rect x="1.5" y="186.8" class="st2" width="0.3" height="136.1"/>
	<rect x="1.5" y="104.3" class="st2" width="0.3" height="300.7"/>
	<path class="st2" d="M459.4,255c0,37.2-30,67.4-67.1,67.8h-0.6c-37.3-0.1-67.5-30.5-67.5-67.8c0-37.4,30.2-67.6,67.5-67.8h0.6
		C429.4,187.6,459.4,217.8,459.4,255z"/>
	<line class="st2" x1="391.6" y1="1.4" x2="391.6" y2="0.7"/>
	<path class="st2" d="M149.8,255.1c0,22.3-10.8,42.4-27,55V200.2C139,212.8,149.8,232.8,149.8,255.1z"/>
	<polygon class="st2" points="122.8,104.3 122.8,405 1.8,405 1.8,322.9 41,322.9 41,186.8 1.8,186.8 1.8,104.3 	"/>
	<rect x="1.8" y="186.8" class="st2" width="39.2" height="136.1"/>
	<path class="st2" d="M324.1,255c0,37.3,30.2,67.6,67.5,67.8v185.5H1.8V405h121v-94.9c16.2-12.6,27-32.7,27-55s-10.8-42.3-27-54.9
		v-95.9H1.8V1.4h389.9v185.8C354.3,187.4,324.1,217.7,324.1,255z"/>
	<line class="st2" x1="391.6" y1="508.8" x2="391.6" y2="508.3"/>
	<path class="st2" d="M392.3,1.4"/>
	<path class="st2" d="M392.3,508.3"/>
	<rect x="781.7" y="186.8" class="st2" width="0.3" height="136.1"/>
	<rect x="781.7" y="104.3" class="st2" width="0.3" height="300.7"/>
	<line class="st2" x1="392.3" y1="187.2" x2="392" y2="187.2"/>
	<line class="st2" x1="392.3" y1="322.8" x2="392" y2="322.8"/>
	<line class="st2" x1="392.3" y1="0.7" x2="392.3" y2="1.4"/>
	<path class="st2" d="M660.7,200.2v109.9c-16.2-12.6-27-32.7-27-55S644.5,212.8,660.7,200.2z"/>
	<polygon class="st2" points="742.5,186.8 742.5,322.9 781.7,322.9 781.7,405 660.7,405 660.7,104.3 781.7,104.3 781.7,186.8 	"/>
	<rect x="742.5" y="186.8" class="st2" width="39.2" height="136.1"/>
	<path class="st2" d="M633.7,255.1c0,22.3,10.8,42.4,27,55V405h121v103.3H391.8V322.8h0.2c37.2-0.2,67.4-30.5,67.4-67.8
		c0-37.3-30.1-67.6-67.4-67.8h-0.2V1.4h389.9v102.9h-121v95.9C644.5,212.8,633.7,232.8,633.7,255.1z"/>
	<line class="st2" x1="392.3" y1="508.3" x2="392.3" y2="508.8"/>
	<line class="st2" x1="391.6" y1="187.2" x2="391.6" y2="321.8"/>
</g>
</svg>
